<?xml version="1.0" encoding="utf-8"?>
<!-- Svg Vector Icons : http://www.onlinewebfonts.com/icon -->
<!DOCTYPE svg PUBLIC "-//W3C//DTD SVG 1.1//EN" "http://www.w3.org/Graphics/SVG/1.1/DTD/svg11.dtd">
<svg version="1.1" xmlns="http://www.w3.org/2000/svg" xmlns:xlink="http://www.w3.org/1999/xlink" x="0px" y="0px" viewBox="0 0 1000 1000" width="32" height="36" enable-background="new 0 0 1000 1000" xml:space="preserve">
<metadata> Svg Vector Icons : http://www.onlinewebfonts.com/icon </metadata>
<g><g transform="translate(0.000000,511.000000) scale(0.100000,-0.100000)"><path d="M2199.6,4694.3c-40.2-34.5-65.1-101.5-122.6-323.8c-40.2-155.2-88.1-304.6-107.3-333.3c-42.1-63.2-132.2-103.5-275.9-116.9c-109.2-9.6-111.1-9.6-356.3,134.1c-333.3,195.4-339.1,195.4-544.1-15.3c-120.7-122.6-157.1-172.4-157.1-212.6c0-32.6,61.3-159,153.3-316.1c187.7-319.9,191.6-358.2,76.6-532.6c-86.2-128.4-72.8-122.6-431-214.6c-318-82.4-335.2-101.5-335.2-373.6c0-277.8,11.5-291.2,373.6-385.1c312.3-80.4,362.1-103.4,402.3-178.2c32.6-65.1,67.1-266.3,51.7-308.4c-5.8-15.3-72.8-137.9-149.4-270.1c-84.3-143.7-141.8-262.4-141.8-295c0-40.2,36.4-90,159-214.6c208.8-212.6,205-212.6,559.4-7.7c147.5,86.2,289.3,155.2,314.2,155.2c59.4,0,183.9-61.3,268.2-132.2c59.4-49.8,70.9-78.5,137.9-337.2c47.9-185.8,86.2-298.9,111.1-323.8c80.5-78.5,492.3-78.5,557.5,1.9c17.2,23,65.1,168.6,105.4,325.7c63.2,237.5,84.3,293.1,134.1,342.9c57.5,59.4,191.6,103.5,308.4,103.5c26.8,0,151.3-61.3,275.9-134.1c279.7-164.8,310.3-178.2,379.3-151.3c76.6,28.7,306.5,264.4,331.4,339.1c19.2,59.4,13.4,76.6-109.2,287.4c-226,388.9-224.1,381.2-160.9,509.6c88.1,182,118.8,203.1,440.6,289.3c371.6,97.7,373.6,99.6,373.6,383.1c0,285.4,0,285.4-383.1,385c-348.7,90-390.8,120.7-429.1,293.1c-34.5,159-26.8,185.8,101.5,400.4c187.7,318,189.7,321.8,164.8,394.6c-11.5,36.4-80.5,122.6-160.9,201.1c-189.7,182-203.1,182-530.7-9.6c-287.4-166.7-341-182-454-124.5c-178.2,90-201.2,126.4-281.6,436.8c-99.6,375.5-93.9,369.7-381.2,369.7C2266.7,4736.4,2243.7,4732.6,2199.6,4694.3z M2728.4,3320.7c415.7-114.9,705-496.2,705-931c0-272-88.1-480.9-287.4-680.1c-201.2-201.1-408-287.4-689.7-287.4c-427.2,0-812.3,289.3-931,699.2c-70.9,249-26.8,565.1,107.3,773.9C1875.9,3270.9,2308.8,3437.6,2728.4,3320.7z"/><path d="M6373.9,1981.6c-162.8-30.7-214.6-99.6-249-333.3c-40.2-270.1-114.9-344.8-348.7-356.3c-205-11.5-272,13.4-381.2,141.8c-185.8,216.5-239.5,214.6-588.1-15.3c-160.9-107.3-275.9-197.3-293.1-228c-44.1-88.1-32.6-191.6,40.2-348.6c111.1-239.5,88.1-360.2-90-477c-160.9-107.3-214.6-116.9-360.2-72.8c-285.4,86.2-344.8,46-505.7-352.5C3441-451.3,3450.6-505,3714.9-681.2c258.6-170.5,287.4-260.5,153.3-484.7c-59.4-101.5-65.1-105.4-222.2-155.2c-168.6-55.6-233.7-99.6-270.1-187.7c-19.2-44.1-11.5-111.1,38.3-377.4c32.6-176.3,72.8-341,88.1-365.9c59.4-92,136-118.8,342.9-118.8c147.5,0,210.7-9.6,272-38.3c95.8-42.1,109.2-80.4,97.7-256.7c-5.7-113-13.4-126.4-105.4-233.7c-197.3-226.1-189.7-272,107.3-593.9c122.6-132.2,245.2-252.9,274-268.2c101.5-51.7,185.8-34.5,369.7,78.5c266.3,162.8,325.7,160.9,421.5-11.5l53.6-99.6l-23-178.2c-26.8-201.2-5.7-285.4,82.4-342.9c59.4-38.3,632.2-201.2,710.7-201.2c111.1,0,178.2,63.2,266.3,254.8c176.2,379.3,344.8,379.3,521.1,0c90-191.6,155.2-254.8,266.3-254.8c82.4,0,647.5,159,708.8,199.2c26.8,17.2,63.2,61.3,80.5,97.7c26.8,55.6,28.7,86.2,9.6,224.1c-34.5,241.4-30.7,296.9,24.9,350.6c38.3,40.2,65.1,47.9,166.7,47.9c113,0,132.2-5.7,273.9-97.7c145.6-92,159-95.8,258.6-88.1l103.5,7.7l226,237.5c122.6,130.3,239.5,266.3,256.7,302.7c44.1,90,24.9,180.1-63.2,281.6c-220.3,256.7-243.3,339.1-124.5,452.1c113,109.2,172.4,130.3,362.1,130.3c183.9,0,260.5,28.7,321.8,120.7c40.2,61.3,147.5,637.9,134.1,714.6c-17.3,97.7-93.9,155.2-272,210.7c-103.4,32.6-185.8,70.9-229.9,109.2c-65.1,57.5-67.1,63.2-57.5,168.6c17.2,185.8,67.1,268.2,228,377.4c176.3,118.8,191.6,137.9,203.1,249c5.7,76.6-7.6,128.3-101.5,356.3c-126.4,312.3-134.1,323.8-203.1,364c-69,40.2-153.3,38.3-304.6-7.7c-245.2-74.7-337.2-42.1-425.3,147.5c-86.2,182-88.1,256.7-15.3,417.6c69,149.4,76.6,241.4,32.6,325.7c-17.2,36.4-122.6,120.7-291.2,235.6c-346.7,233.7-402.3,233.7-592,13.4c-197.3-229.9-314.2-239.5-572.8-53.6c-113,82.4-139.8,132.2-155.2,295c-15.3,147.5-61.3,231.8-147.5,277.8C6925.7,1985.5,6513.8,2006.5,6373.9,1981.6z M6971.6,31.4c423.4-105.4,798.9-459.8,936.8-881.2c49.8-153.2,55.6-195.4,55.6-419.5c0-208.8-7.7-270.1-44.1-381.2c-185.8-555.5-637.9-910-1203.1-944.4c-752.9-46-1381.2,515.3-1419.6,1268.2c-13.4,251,24.9,425.3,139.8,659c189.7,385.1,569,662.9,994.3,728C6573.2,83.2,6824.1,69.7,6971.6,31.4z"/><path d="M6527.2-296.1c-567-80.5-948.3-584.3-854.4-1128.4c95.8-553.6,639.8-911.9,1187.7-783.5c507.7,120.7,833.3,634.1,728,1143.7c-70.9,337.1-371.7,657.1-697.3,739.5C6795.4-300,6601.9-284.7,6527.2-296.1z"/></g></g>
</svg>